<svg xmlns="http://www.w3.org/2000/svg" width="135.749" height="20.01" viewBox="0 0 135.749 20.01">
  <path id="Path_533" data-name="Path 533" d="M22.881,0V-19.343h-5.8L12.383-7.25l-4.7-12.093H1.914V0H6.032V-13.949L11.484,0h1.8l5.452-13.949V0ZM34.162.348A9.712,9.712,0,0,0,44.254-9.657a9.712,9.712,0,0,0-10.092-10,9.719,9.719,0,0,0-10.121,10A9.719,9.719,0,0,0,34.162.348Zm0-3.654c-3.6,0-5.887-2.755-5.887-6.351,0-3.625,2.291-6.351,5.887-6.351,3.567,0,5.858,2.726,5.858,6.351C40.02-6.061,37.729-3.306,34.162-3.306ZM55.912,0c3.712,0,5.626-2.32,5.626-5.249a4.651,4.651,0,0,0-3.712-4.727,4.32,4.32,0,0,0,3.335-4.437c0-2.581-1.885-4.93-5.568-4.93H45.414V0ZM54.694-11.658H49.532v-4.06h5.162a2.033,2.033,0,0,1,2.262,2.03A2,2,0,0,1,54.694-11.658Zm.174,8.033H49.532V-8.033h5.336a2.21,2.21,0,0,1,2.465,2.2C57.333-4.437,56.4-3.625,54.868-3.625ZM67.019,0V-19.343H62.9V0ZM85.666,0,77.459-10.266l7.685-9.077H80.069L73.225-10.73v-8.613H69.107V0h4.118V-5.945l1.508-1.827L80.591,0Zm7.975.348A9.712,9.712,0,0,0,103.733-9.657a9.712,9.712,0,0,0-10.092-10,9.719,9.719,0,0,0-10.121,10A9.719,9.719,0,0,0,93.641.348Zm0-3.654c-3.6,0-5.887-2.755-5.887-6.351,0-3.625,2.291-6.351,5.887-6.351,3.567,0,5.858,2.726,5.858,6.351C99.5-6.061,97.208-3.306,93.641-3.306ZM112.549,0c6.032,0,10.237-3.828,10.237-9.686,0-5.8-4.205-9.657-10.266-9.657h-7.627V0Zm-.029-3.625h-3.509V-15.718h3.538c3.944,0,6.032,2.639,6.032,6.032A5.8,5.8,0,0,1,112.52-3.625ZM137.663,0V-3.625h-9.57V-8.033h9.367v-3.625h-9.367v-4.06h9.57v-3.625H123.975V0Z" transform="translate(-1.914 19.662)" fill="#fff"/>
</svg>
